<?xml version="1.0" encoding="UTF-8"?>
<svg width="32px" height="32px" viewBox="0 0 32 32" version="1.1" xmlns="http://www.w3.org/2000/svg" xmlns:xlink="http://www.w3.org/1999/xlink">
    <!-- Generator: Sketch 52.6 (67491) - http://www.bohemiancoding.com/sketch -->
    <title>d-favicon</title>
    <desc>Created with Sketch.</desc>
    <g id="d-favicon" stroke="none" stroke-width="1" fill="none" fill-rule="evenodd">
        <path d="M19.244,4.024 C22.844018,4.024 25.5559909,4.7139931 27.38,6.094 C29.2040091,7.4740069 30.116,9.49598668 30.116,12.16 C30.116,13.4800066 29.8760024,15.0039914 29.396,16.732 C28.603996,19.5160139 27.5360067,21.7239918 26.192,23.356 C24.8479933,24.9880082 23.078011,26.1759963 20.882,26.92 C18.685989,27.6640037 15.8720172,28.0240001 12.44,28 L2.648,27.964 C2.14399748,27.964 1.75400138,27.8800008 1.478,27.712 C1.20199862,27.5439992 1.064,27.3160014 1.064,27.028 C1.064,26.8839993 1.09999964,26.7280008 1.172,26.56 C1.24400036,26.3439989 1.34599934,26.1880005 1.478,26.092 C1.61000066,25.9959995 1.80799868,25.8640008 2.072,25.696 C2.45600192,25.4799989 2.76199886,25.2400013 2.99,24.976 C3.21800114,24.7119987 3.41599916,24.2920029 3.584,23.716 L7.976,8.236 C8.07200048,7.92399844 8.12,7.62400144 8.12,7.336 C8.12,7.07199868 8.07800042,6.8500009 7.994,6.67 C7.90999958,6.4899991 7.79600072,6.2800012 7.652,6.04 C7.43599892,5.72799844 7.328,5.47600096 7.328,5.284 C7.328,5.21199964 7.35199976,5.08000096 7.4,4.888 C7.49600048,4.57599844 7.70599838,4.35400066 8.03,4.222 C8.35400162,4.08999934 8.85199664,4.024 9.524,4.024 L19.244,4.024 Z M20.18,15.94 C20.8040031,13.6839887 21.116,11.9080065 21.116,10.612 C21.116,9.33999364 20.8520026,8.4640024 20.324,7.984 C19.7959974,7.5039976 19.0400049,7.264 18.056,7.264 L17.264,7.264 L12.404,24.76 L13.268,24.76 C14.3720055,24.76 15.3019962,24.5260023 16.058,24.058 C16.8140038,23.5899977 17.5159968,22.7260063 18.164,21.466 C18.8120032,20.2059937 19.4839965,18.3640121 20.18,15.94 Z" id="D" fill="#CC0077"></path>
    </g>
</svg>